<?xml version="1.0" encoding="UTF-8"?><svg width="61.9125mm" height="8.99583mm" viewBox="0 0 234 34" xmlns="http://www.w3.org/2000/svg" xmlns:xlink="http://www.w3.org/1999/xlink"><g fill="none" stroke="black" stroke-width="1" fill-rule="evenodd" stroke-linecap="square" stroke-linejoin="bevel"><g clip-path="none" fill="#ffffff" fill-opacity="1" opacity="1" stroke="none" stroke-opacity="0" transform="matrix(1,0,0,1,0,0)"><path d="M0,0 L234,0 L234,34 L0,34 L0,0 z" fill-rule="evenodd" vector-effect="none"/></g><defs><clipPath id="clip3"><path d="M-227,-17 L7,-17 L7,17 L-227,17 L-227,-17 z"/></clipPath></defs><g clip-path="url(#clip3)" fill="none" opacity="1" stroke="#000000" stroke-linecap="round" stroke-linejoin="miter" stroke-miterlimit="2" stroke-opacity="1" stroke-width="2" transform="matrix(1,0,0,1,227,17)"><path d="M0.5,-4.5 L5.5,0.5 L0.5,5.5" fill-rule="evenodd" vector-effect="none"/></g><defs><clipPath id="clip6"><path d="M-142,-2 L92,-2 L92,32 L-142,32 L-142,-2 z"/></clipPath></defs><g clip-path="url(#clip6)" fill="#ffffff" fill-opacity="1" opacity="1" stroke="none" stroke-opacity="0" transform="matrix(1,0,0,1,142,2)"><path d="M0,0 L85,0 L85,30 L0,30 L0,0 z" fill-rule="evenodd" vector-effect="none"/></g><defs><clipPath id="clip10"><path d="M600,170 L685,170 L685,200 L600,200 L600,170 z"/></clipPath></defs><g clip-path="url(#clip10)" fill="none" opacity="1" stroke="#000000" stroke-linecap="butt" stroke-linejoin="miter" stroke-miterlimit="2" stroke-opacity="1" stroke-width="1" transform="matrix(1,0,0,1,-457.5,-167.5)"><polyline fill="none" points="604,194 680,194" vector-effect="none"/></g><defs><clipPath id="clip11"><path d="M600,170 L685,170 L685,200 L600,200 L600,170 z"/></clipPath></defs><g clip-path="url(#clip11)" fill="none" opacity="1" stroke="#000000" stroke-linecap="butt" stroke-linejoin="miter" stroke-miterlimit="2" stroke-opacity="1" stroke-width="1" transform="matrix(1,0,0,1,-457.5,-167.5)"><polyline fill="none" points="604,176 680,176" vector-effect="none"/></g><defs><clipPath id="clip12"><path d="M-3,-17 L82,-17 L82,13 L-3,13 L-3,-17 z"/></clipPath></defs><g clip-path="url(#clip12)" fill="none" opacity="1" stroke="#000000" stroke-linecap="butt" stroke-linejoin="miter" stroke-miterlimit="2" stroke-opacity="1" stroke-width="1" transform="matrix(1,0,0,1,145,19)"><text fill="#000000" fill-opacity="1" font-family="Arial" font-size="10" font-style="normal" font-weight="400" stroke="none" textLength="18.8594" x="0" xml:space="preserve" y="1">Idx1</text></g><defs><clipPath id="clip13"><path d="M-22,-22 L63,-22 L63,8 L-22,8 L-22,-22 z"/></clipPath></defs><g clip-path="url(#clip13)" fill="none" opacity="1" stroke="#000000" stroke-linecap="butt" stroke-linejoin="miter" stroke-miterlimit="2" stroke-opacity="1" stroke-width="1" transform="matrix(1,0,0,1,164,24)"><text fill="#000000" fill-opacity="1" font-family="Arial" font-size="8" font-style="normal" font-weight="400" stroke="none" textLength="4.4375" x="0" xml:space="preserve" y="1">1</text></g><defs><clipPath id="clip14"><path d="M-82,-15 L3,-15 L3,15 L-82,15 L-82,-15 z"/></clipPath></defs><g clip-path="url(#clip14)" fill="none" opacity="1" stroke="#000000" stroke-linecap="butt" stroke-linejoin="miter" stroke-miterlimit="2" stroke-opacity="1" stroke-width="1" transform="matrix(1,0,0,1,224,17)"><text fill="#000000" fill-opacity="1" font-family="Arial" font-size="10" font-style="normal" font-weight="400" stroke="none" textLength="29.4219" x="-29.4219" xml:space="preserve" y="3.5">moves</text></g><defs><clipPath id="clip19"><path d="M-142.5,-2.5 L91.5,-2.5 L91.5,31.5 L-142.5,31.5 L-142.5,-2.5 z"/></clipPath></defs><g clip-path="url(#clip19)" fill="none" opacity="1" stroke="#000000" stroke-linecap="butt" stroke-linejoin="miter" stroke-miterlimit="2" stroke-opacity="1" stroke-width="1" transform="matrix(1,0,0,1,142.5,2.5)"><path d="M0,0 L85,0 L85,30 L0,30 L0,0 z" fill-rule="evenodd" vector-effect="none"/></g><defs><clipPath id="clip22"><path d="M-2,-2 L232,-2 L232,32 L-2,32 L-2,-2 z"/></clipPath></defs><g clip-path="url(#clip22)" fill="#ffffff" fill-opacity="1" opacity="1" stroke="none" stroke-opacity="0" transform="matrix(1,0,0,1,2,2)"><path d="M0,0 L95,0 L95,30 L0,30 L0,0 z" fill-rule="evenodd" vector-effect="none"/></g><defs><clipPath id="clip26"><path d="M460,170 L555,170 L555,200 L460,200 L460,170 z"/></clipPath></defs><g clip-path="url(#clip26)" fill="none" opacity="1" stroke="#000000" stroke-linecap="butt" stroke-linejoin="miter" stroke-miterlimit="2" stroke-opacity="1" stroke-width="1" transform="matrix(1,0,0,1,-457.5,-167.5)"><polyline fill="none" points="469,197 545,197" vector-effect="none"/></g><defs><clipPath id="clip27"><path d="M460,170 L555,170 L555,200 L460,200 L460,170 z"/></clipPath></defs><g clip-path="url(#clip27)" fill="none" opacity="1" stroke="#000000" stroke-linecap="butt" stroke-linejoin="miter" stroke-miterlimit="2" stroke-opacity="1" stroke-width="1" transform="matrix(1,0,0,1,-457.5,-167.5)"><polyline fill="none" points="469,173 545,173" vector-effect="none"/></g><defs><clipPath id="clip28"><path d="M-47,-15 L48,-15 L48,15 L-47,15 L-47,-15 z"/></clipPath></defs><g clip-path="url(#clip28)" fill="none" opacity="1" stroke="#000000" stroke-linecap="butt" stroke-linejoin="miter" stroke-miterlimit="2" stroke-opacity="1" stroke-width="1" transform="matrix(1,0,0,1,49,17)"><text fill="#000000" fill-opacity="1" font-family="Arial" font-size="10" font-style="normal" font-weight="400" stroke="none" textLength="79.3438" x="-39.6719" xml:space="preserve" y="3.5">current\_move\_idx</text></g><defs><clipPath id="clip33"><path d="M-2.5,-2.5 L231.5,-2.5 L231.5,31.5 L-2.5,31.5 L-2.5,-2.5 z"/></clipPath></defs><g clip-path="url(#clip33)" fill="none" opacity="1" stroke="#000000" stroke-linecap="butt" stroke-linejoin="miter" stroke-miterlimit="2" stroke-opacity="1" stroke-width="1" transform="matrix(1,0,0,1,2.5,2.5)"><path d="M0,0 L95,0 L95,30 L0,30 L0,0 z" fill-rule="evenodd" vector-effect="none"/></g><defs><clipPath id="clip36"><path d="M-142,-17 L92,-17 L92,17 L-142,17 L-142,-17 z"/></clipPath></defs><g clip-path="url(#clip36)" fill="#000000" fill-opacity="1" opacity="1" stroke="none" stroke-opacity="0" transform="matrix(1,0,0,1,142,17)"><path d="M0,0 L-8,-4 L-8,4 L0,0 z" fill-rule="nonzero" vector-effect="none"/></g><defs><clipPath id="clip39"><path d="M458,168 L692,168 L692,202 L458,202 L458,168 z"/></clipPath></defs><g clip-path="url(#clip39)" fill="none" opacity="1" stroke="#000000" stroke-linecap="butt" stroke-linejoin="miter" stroke-miterlimit="2" stroke-opacity="1" stroke-width="1" transform="matrix(1,0,0,1,-458,-168)"><path d="M555.5,185.5 L592.5,185.5" fill-rule="evenodd" vector-effect="none"/></g></g><!--generated on windows @ 2024-12-22 18:06:53 W. Europe Standard Time--></svg>
