<?xml version="1.0" encoding="UTF-8"?><svg width="39.4229mm" height="39.9521mm" viewBox="0 0 149 151" xmlns="http://www.w3.org/2000/svg" xmlns:xlink="http://www.w3.org/1999/xlink"><g fill="none" stroke="black" stroke-width="1" fill-rule="evenodd" stroke-linecap="square" stroke-linejoin="bevel"><g clip-path="none" fill="#ffffff" fill-opacity="1" opacity="1" stroke="none" stroke-opacity="0" transform="matrix(1,0,0,1,0,0)"><path d="M0,0 L148.703,0 L148.703,151 L0,151 L0,0 z" fill-rule="evenodd" vector-effect="none"/></g><defs><clipPath id="clip3"><path d="M-39.3516,-17 L109.352,-17 L109.352,134 L-39.3516,134 L-39.3516,-17 z"/></clipPath></defs><g clip-path="url(#clip3)" fill="none" opacity="1" stroke="#000000" stroke-linecap="round" stroke-linejoin="miter" stroke-miterlimit="2" stroke-opacity="1" stroke-width="2" transform="matrix(1,0,0,1,39.3516,17)"><path d="M0.148438,-4.5 L5.14844,0.5 L0.148438,5.5" fill-rule="evenodd" vector-effect="none"/></g><defs><clipPath id="clip6"><path d="M-9,-2 L139.703,-2 L139.703,149 L-9,149 L-9,-2 z"/></clipPath></defs><g clip-path="url(#clip6)" fill="#ff8000" fill-opacity="1" opacity="1" stroke="none" stroke-opacity="0" transform="matrix(1,0,0,1,9,2)"><path d="M0,0 L30,0 L30,30 L0,30 L0,0 z" fill-rule="evenodd" vector-effect="none"/></g><defs><clipPath id="clip10"><path d="M-15,-15 L15,-15 L15,15 L-15,15 L-15,-15 z"/></clipPath></defs><g clip-path="url(#clip10)" fill="none" opacity="1" stroke="#000000" stroke-linecap="butt" stroke-linejoin="miter" stroke-miterlimit="2" stroke-opacity="1" stroke-width="1" transform="matrix(1,0,0,1,24,17)"><text fill="#000000" fill-opacity="1" font-family="Arial" font-size="10" font-style="normal" font-weight="400" stroke="none" textLength="33.2813" x="-16.6406" xml:space="preserve" y="3.5">Orange</text></g><defs><clipPath id="clip15"><path d="M-9.5,-2.5 L139.203,-2.5 L139.203,148.5 L-9.5,148.5 L-9.5,-2.5 z"/></clipPath></defs><g clip-path="url(#clip15)" fill="none" opacity="1" stroke="#000000" stroke-linecap="butt" stroke-linejoin="miter" stroke-miterlimit="2" stroke-opacity="1" stroke-width="1" transform="matrix(1,0,0,1,9.5,2.5)"><path d="M0,0 L30,0 L30,30 L0,30 L0,0 z" fill-rule="evenodd" vector-effect="none"/></g><defs><clipPath id="clip21"><path d="M0,0 L45,0 L45,15 L0,15 L0,0 z"/></clipPath></defs><g clip-path="url(#clip21)" fill="none" opacity="1" stroke="#000000" stroke-linecap="square" stroke-linejoin="bevel" stroke-opacity="1" stroke-width="1" transform="matrix(1,0,0,1,2,34)"><text fill="#000000" fill-opacity="1" font-family="Arial" font-size="10" font-style="normal" font-weight="400" stroke="none" textLength="42.7031" x="1" xml:space="preserve" y="11">face_tile1</text></g><defs><clipPath id="clip29"><path d="M-89.3516,-17 L59.3516,-17 L59.3516,134 L-89.3516,134 L-89.3516,-17 z"/></clipPath></defs><g clip-path="url(#clip29)" fill="none" opacity="1" stroke="#000000" stroke-linecap="round" stroke-linejoin="miter" stroke-miterlimit="2" stroke-opacity="1" stroke-width="2" transform="matrix(1,0,0,1,89.3516,17)"><path d="M0.148438,-4.5 L5.14844,0.5 L0.148438,5.5" fill-rule="evenodd" vector-effect="none"/></g><defs><clipPath id="clip32"><path d="M-59,-2 L89.7031,-2 L89.7031,149 L-59,149 L-59,-2 z"/></clipPath></defs><g clip-path="url(#clip32)" fill="#0000cc" fill-opacity="1" opacity="1" stroke="none" stroke-opacity="0" transform="matrix(1,0,0,1,59,2)"><path d="M0,0 L30,0 L30,30 L0,30 L0,0 z" fill-rule="evenodd" vector-effect="none"/></g><defs><clipPath id="clip36"><path d="M-15,-15 L15,-15 L15,15 L-15,15 L-15,-15 z"/></clipPath></defs><g clip-path="url(#clip36)" fill="none" opacity="1" stroke="#000000" stroke-linecap="butt" stroke-linejoin="miter" stroke-miterlimit="2" stroke-opacity="1" stroke-width="1" transform="matrix(1,0,0,1,74,17)"><text fill="#000000" fill-opacity="1" font-family="Arial" font-size="10" font-style="normal" font-weight="400" stroke="none" textLength="19.9688" x="-9.98438" xml:space="preserve" y="3.5">Blue</text></g><defs><clipPath id="clip41"><path d="M-59.5,-2.5 L89.2031,-2.5 L89.2031,148.5 L-59.5,148.5 L-59.5,-2.5 z"/></clipPath></defs><g clip-path="url(#clip41)" fill="none" opacity="1" stroke="#000000" stroke-linecap="butt" stroke-linejoin="miter" stroke-miterlimit="2" stroke-opacity="1" stroke-width="1" transform="matrix(1,0,0,1,59.5,2.5)"><path d="M0,0 L30,0 L30,30 L0,30 L0,0 z" fill-rule="evenodd" vector-effect="none"/></g><defs><clipPath id="clip47"><path d="M0,0 L45,0 L45,15 L0,15 L0,0 z"/></clipPath></defs><g clip-path="url(#clip47)" fill="none" opacity="1" stroke="#000000" stroke-linecap="square" stroke-linejoin="bevel" stroke-opacity="1" stroke-width="1" transform="matrix(1,0,0,1,52,34)"><text fill="#000000" fill-opacity="1" font-family="Arial" font-size="10" font-style="normal" font-weight="400" stroke="none" textLength="42.7031" x="1" xml:space="preserve" y="11">face_tile2</text></g><defs><clipPath id="clip55"><path d="M-139.352,-17 L9.35156,-17 L9.35156,134 L-139.352,134 L-139.352,-17 z"/></clipPath></defs><g clip-path="url(#clip55)" fill="none" opacity="1" stroke="#000000" stroke-linecap="round" stroke-linejoin="miter" stroke-miterlimit="2" stroke-opacity="1" stroke-width="2" transform="matrix(1,0,0,1,139.352,17)"><path d="M0.148438,-4.5 L5.14844,0.5 L0.148438,5.5" fill-rule="evenodd" vector-effect="none"/></g><defs><clipPath id="clip58"><path d="M-109,-2 L39.7031,-2 L39.7031,149 L-109,149 L-109,-2 z"/></clipPath></defs><g clip-path="url(#clip58)" fill="#ffffff" fill-opacity="1" opacity="1" stroke="none" stroke-opacity="0" transform="matrix(1,0,0,1,109,2)"><path d="M0,0 L30,0 L30,30 L0,30 L0,0 z" fill-rule="evenodd" vector-effect="none"/></g><defs><clipPath id="clip62"><path d="M-15,-15 L15,-15 L15,15 L-15,15 L-15,-15 z"/></clipPath></defs><g clip-path="url(#clip62)" fill="none" opacity="1" stroke="#000000" stroke-linecap="butt" stroke-linejoin="miter" stroke-miterlimit="2" stroke-opacity="1" stroke-width="1" transform="matrix(1,0,0,1,124,17)"><text fill="#000000" fill-opacity="1" font-family="Arial" font-size="10" font-style="normal" font-weight="400" stroke="none" textLength="25.5156" x="-12.75" xml:space="preserve" y="3.5">White</text></g><defs><clipPath id="clip67"><path d="M-109.5,-2.5 L39.2031,-2.5 L39.2031,148.5 L-109.5,148.5 L-109.5,-2.5 z"/></clipPath></defs><g clip-path="url(#clip67)" fill="none" opacity="1" stroke="#000000" stroke-linecap="butt" stroke-linejoin="miter" stroke-miterlimit="2" stroke-opacity="1" stroke-width="1" transform="matrix(1,0,0,1,109.5,2.5)"><path d="M0,0 L30,0 L30,30 L0,30 L0,0 z" fill-rule="evenodd" vector-effect="none"/></g><defs><clipPath id="clip73"><path d="M0,0 L45,0 L45,15 L0,15 L0,0 z"/></clipPath></defs><g clip-path="url(#clip73)" fill="none" opacity="1" stroke="#000000" stroke-linecap="square" stroke-linejoin="bevel" stroke-opacity="1" stroke-width="1" transform="matrix(1,0,0,1,102,34)"><text fill="#000000" fill-opacity="1" font-family="Arial" font-size="10" font-style="normal" font-weight="400" stroke="none" textLength="42.7031" x="1" xml:space="preserve" y="11">face_tile3</text></g><defs><clipPath id="clip81"><path d="M-39.3516,-67 L109.352,-67 L109.352,84 L-39.3516,84 L-39.3516,-67 z"/></clipPath></defs><g clip-path="url(#clip81)" fill="none" opacity="1" stroke="#000000" stroke-linecap="round" stroke-linejoin="miter" stroke-miterlimit="2" stroke-opacity="1" stroke-width="2" transform="matrix(1,0,0,1,39.3516,67)"><path d="M0.148438,-4.5 L5.14844,0.5 L0.148438,5.5" fill-rule="evenodd" vector-effect="none"/></g><defs><clipPath id="clip84"><path d="M-9,-52 L139.703,-52 L139.703,99 L-9,99 L-9,-52 z"/></clipPath></defs><g clip-path="url(#clip84)" fill="#e60000" fill-opacity="1" opacity="1" stroke="none" stroke-opacity="0" transform="matrix(1,0,0,1,9,52)"><path d="M0,0 L30,0 L30,30 L0,30 L0,0 z" fill-rule="evenodd" vector-effect="none"/></g><defs><clipPath id="clip88"><path d="M-15,-15 L15,-15 L15,15 L-15,15 L-15,-15 z"/></clipPath></defs><g clip-path="url(#clip88)" fill="none" opacity="1" stroke="#000000" stroke-linecap="butt" stroke-linejoin="miter" stroke-miterlimit="2" stroke-opacity="1" stroke-width="1" transform="matrix(1,0,0,1,24,67)"><text fill="#000000" fill-opacity="1" font-family="Arial" font-size="10" font-style="normal" font-weight="400" stroke="none" textLength="18.3125" x="-9.15625" xml:space="preserve" y="3.5">Red</text></g><defs><clipPath id="clip93"><path d="M-9.5,-52.5 L139.203,-52.5 L139.203,98.5 L-9.5,98.5 L-9.5,-52.5 z"/></clipPath></defs><g clip-path="url(#clip93)" fill="none" opacity="1" stroke="#000000" stroke-linecap="butt" stroke-linejoin="miter" stroke-miterlimit="2" stroke-opacity="1" stroke-width="1" transform="matrix(1,0,0,1,9.5,52.5)"><path d="M0,0 L30,0 L30,30 L0,30 L0,0 z" fill-rule="evenodd" vector-effect="none"/></g><defs><clipPath id="clip99"><path d="M0,0 L45,0 L45,15 L0,15 L0,0 z"/></clipPath></defs><g clip-path="url(#clip99)" fill="none" opacity="1" stroke="#000000" stroke-linecap="square" stroke-linejoin="bevel" stroke-opacity="1" stroke-width="1" transform="matrix(1,0,0,1,2,84)"><text fill="#000000" fill-opacity="1" font-family="Arial" font-size="10" font-style="normal" font-weight="400" stroke="none" textLength="42.7031" x="1" xml:space="preserve" y="11">face_tile4</text></g><defs><clipPath id="clip107"><path d="M-89.3516,-67 L59.3516,-67 L59.3516,84 L-89.3516,84 L-89.3516,-67 z"/></clipPath></defs><g clip-path="url(#clip107)" fill="none" opacity="1" stroke="#000000" stroke-linecap="round" stroke-linejoin="miter" stroke-miterlimit="2" stroke-opacity="1" stroke-width="2" transform="matrix(1,0,0,1,89.3516,67)"><path d="M0.148438,-4.5 L5.14844,0.5 L0.148438,5.5" fill-rule="evenodd" vector-effect="none"/></g><defs><clipPath id="clip110"><path d="M-59,-52 L89.7031,-52 L89.7031,99 L-59,99 L-59,-52 z"/></clipPath></defs><g clip-path="url(#clip110)" fill="#0000cc" fill-opacity="1" opacity="1" stroke="none" stroke-opacity="0" transform="matrix(1,0,0,1,59,52)"><path d="M0,0 L30,0 L30,30 L0,30 L0,0 z" fill-rule="evenodd" vector-effect="none"/></g><defs><clipPath id="clip114"><path d="M-15,-15 L15,-15 L15,15 L-15,15 L-15,-15 z"/></clipPath></defs><g clip-path="url(#clip114)" fill="none" opacity="1" stroke="#000000" stroke-linecap="butt" stroke-linejoin="miter" stroke-miterlimit="2" stroke-opacity="1" stroke-width="1" transform="matrix(1,0,0,1,74,67)"><text fill="#000000" fill-opacity="1" font-family="Arial" font-size="10" font-style="normal" font-weight="400" stroke="none" textLength="19.9688" x="-9.98438" xml:space="preserve" y="3.5">Blue</text></g><defs><clipPath id="clip119"><path d="M-59.5,-52.5 L89.2031,-52.5 L89.2031,98.5 L-59.5,98.5 L-59.5,-52.5 z"/></clipPath></defs><g clip-path="url(#clip119)" fill="none" opacity="1" stroke="#000000" stroke-linecap="butt" stroke-linejoin="miter" stroke-miterlimit="2" stroke-opacity="1" stroke-width="1" transform="matrix(1,0,0,1,59.5,52.5)"><path d="M0,0 L30,0 L30,30 L0,30 L0,0 z" fill-rule="evenodd" vector-effect="none"/></g><defs><clipPath id="clip125"><path d="M0,0 L45,0 L45,15 L0,15 L0,0 z"/></clipPath></defs><g clip-path="url(#clip125)" fill="none" opacity="1" stroke="#000000" stroke-linecap="square" stroke-linejoin="bevel" stroke-opacity="1" stroke-width="1" transform="matrix(1,0,0,1,52,84)"><text fill="#000000" fill-opacity="1" font-family="Arial" font-size="10" font-style="normal" font-weight="400" stroke="none" textLength="42.7031" x="1" xml:space="preserve" y="11">face_tile5</text></g><defs><clipPath id="clip133"><path d="M-139.352,-67 L9.35156,-67 L9.35156,84 L-139.352,84 L-139.352,-67 z"/></clipPath></defs><g clip-path="url(#clip133)" fill="none" opacity="1" stroke="#000000" stroke-linecap="round" stroke-linejoin="miter" stroke-miterlimit="2" stroke-opacity="1" stroke-width="2" transform="matrix(1,0,0,1,139.352,67)"><path d="M0.148438,-4.5 L5.14844,0.5 L0.148438,5.5" fill-rule="evenodd" vector-effect="none"/></g><defs><clipPath id="clip136"><path d="M-109,-52 L39.7031,-52 L39.7031,99 L-109,99 L-109,-52 z"/></clipPath></defs><g clip-path="url(#clip136)" fill="#00d100" fill-opacity="1" opacity="1" stroke="none" stroke-opacity="0" transform="matrix(1,0,0,1,109,52)"><path d="M0,0 L30,0 L30,30 L0,30 L0,0 z" fill-rule="evenodd" vector-effect="none"/></g><defs><clipPath id="clip140"><path d="M-15,-15 L15,-15 L15,15 L-15,15 L-15,-15 z"/></clipPath></defs><g clip-path="url(#clip140)" fill="none" opacity="1" stroke="#000000" stroke-linecap="butt" stroke-linejoin="miter" stroke-miterlimit="2" stroke-opacity="1" stroke-width="1" transform="matrix(1,0,0,1,124,67)"><text fill="#000000" fill-opacity="1" font-family="Arial" font-size="10" font-style="normal" font-weight="400" stroke="none" textLength="27.7344" x="-13.8594" xml:space="preserve" y="3.5">Green</text></g><defs><clipPath id="clip145"><path d="M-109.5,-52.5 L39.2031,-52.5 L39.2031,98.5 L-109.5,98.5 L-109.5,-52.5 z"/></clipPath></defs><g clip-path="url(#clip145)" fill="none" opacity="1" stroke="#000000" stroke-linecap="butt" stroke-linejoin="miter" stroke-miterlimit="2" stroke-opacity="1" stroke-width="1" transform="matrix(1,0,0,1,109.5,52.5)"><path d="M0,0 L30,0 L30,30 L0,30 L0,0 z" fill-rule="evenodd" vector-effect="none"/></g><defs><clipPath id="clip151"><path d="M0,0 L45,0 L45,15 L0,15 L0,0 z"/></clipPath></defs><g clip-path="url(#clip151)" fill="none" opacity="1" stroke="#000000" stroke-linecap="square" stroke-linejoin="bevel" stroke-opacity="1" stroke-width="1" transform="matrix(1,0,0,1,102,84)"><text fill="#000000" fill-opacity="1" font-family="Arial" font-size="10" font-style="normal" font-weight="400" stroke="none" textLength="42.7031" x="1" xml:space="preserve" y="11">face_tile6</text></g><defs><clipPath id="clip159"><path d="M-39.3516,-117 L109.352,-117 L109.352,34 L-39.3516,34 L-39.3516,-117 z"/></clipPath></defs><g clip-path="url(#clip159)" fill="none" opacity="1" stroke="#000000" stroke-linecap="round" stroke-linejoin="miter" stroke-miterlimit="2" stroke-opacity="1" stroke-width="2" transform="matrix(1,0,0,1,39.3516,117)"><path d="M0.148438,-4.5 L5.14844,0.5 L0.148438,5.5" fill-rule="evenodd" vector-effect="none"/></g><defs><clipPath id="clip162"><path d="M-9,-102 L139.703,-102 L139.703,49 L-9,49 L-9,-102 z"/></clipPath></defs><g clip-path="url(#clip162)" fill="#ffffff" fill-opacity="1" opacity="1" stroke="none" stroke-opacity="0" transform="matrix(1,0,0,1,9,102)"><path d="M0,0 L30,0 L30,30 L0,30 L0,0 z" fill-rule="evenodd" vector-effect="none"/></g><defs><clipPath id="clip166"><path d="M-15,-15 L15,-15 L15,15 L-15,15 L-15,-15 z"/></clipPath></defs><g clip-path="url(#clip166)" fill="none" opacity="1" stroke="#000000" stroke-linecap="butt" stroke-linejoin="miter" stroke-miterlimit="2" stroke-opacity="1" stroke-width="1" transform="matrix(1,0,0,1,24,117)"><text fill="#000000" fill-opacity="1" font-family="Arial" font-size="10" font-style="normal" font-weight="400" stroke="none" textLength="25.5156" x="-12.75" xml:space="preserve" y="3.5">White</text></g><defs><clipPath id="clip171"><path d="M-9.5,-102.5 L139.203,-102.5 L139.203,48.5 L-9.5,48.5 L-9.5,-102.5 z"/></clipPath></defs><g clip-path="url(#clip171)" fill="none" opacity="1" stroke="#000000" stroke-linecap="butt" stroke-linejoin="miter" stroke-miterlimit="2" stroke-opacity="1" stroke-width="1" transform="matrix(1,0,0,1,9.5,102.5)"><path d="M0,0 L30,0 L30,30 L0,30 L0,0 z" fill-rule="evenodd" vector-effect="none"/></g><defs><clipPath id="clip177"><path d="M0,0 L45,0 L45,15 L0,15 L0,0 z"/></clipPath></defs><g clip-path="url(#clip177)" fill="none" opacity="1" stroke="#000000" stroke-linecap="square" stroke-linejoin="bevel" stroke-opacity="1" stroke-width="1" transform="matrix(1,0,0,1,2,134)"><text fill="#000000" fill-opacity="1" font-family="Arial" font-size="10" font-style="normal" font-weight="400" stroke="none" textLength="42.7031" x="1" xml:space="preserve" y="11">face_tile7</text></g><defs><clipPath id="clip185"><path d="M-89.3516,-117 L59.3516,-117 L59.3516,34 L-89.3516,34 L-89.3516,-117 z"/></clipPath></defs><g clip-path="url(#clip185)" fill="none" opacity="1" stroke="#000000" stroke-linecap="round" stroke-linejoin="miter" stroke-miterlimit="2" stroke-opacity="1" stroke-width="2" transform="matrix(1,0,0,1,89.3516,117)"><path d="M0.148438,-4.5 L5.14844,0.5 L0.148438,5.5" fill-rule="evenodd" vector-effect="none"/></g><defs><clipPath id="clip188"><path d="M-59,-102 L89.7031,-102 L89.7031,49 L-59,49 L-59,-102 z"/></clipPath></defs><g clip-path="url(#clip188)" fill="#e60000" fill-opacity="1" opacity="1" stroke="none" stroke-opacity="0" transform="matrix(1,0,0,1,59,102)"><path d="M0,0 L30,0 L30,30 L0,30 L0,0 z" fill-rule="evenodd" vector-effect="none"/></g><defs><clipPath id="clip192"><path d="M-15,-15 L15,-15 L15,15 L-15,15 L-15,-15 z"/></clipPath></defs><g clip-path="url(#clip192)" fill="none" opacity="1" stroke="#000000" stroke-linecap="butt" stroke-linejoin="miter" stroke-miterlimit="2" stroke-opacity="1" stroke-width="1" transform="matrix(1,0,0,1,74,117)"><text fill="#000000" fill-opacity="1" font-family="Arial" font-size="10" font-style="normal" font-weight="400" stroke="none" textLength="18.3125" x="-9.15625" xml:space="preserve" y="3.5">Red</text></g><defs><clipPath id="clip197"><path d="M-59.5,-102.5 L89.2031,-102.5 L89.2031,48.5 L-59.5,48.5 L-59.5,-102.5 z"/></clipPath></defs><g clip-path="url(#clip197)" fill="none" opacity="1" stroke="#000000" stroke-linecap="butt" stroke-linejoin="miter" stroke-miterlimit="2" stroke-opacity="1" stroke-width="1" transform="matrix(1,0,0,1,59.5,102.5)"><path d="M0,0 L30,0 L30,30 L0,30 L0,0 z" fill-rule="evenodd" vector-effect="none"/></g><defs><clipPath id="clip203"><path d="M0,0 L45,0 L45,15 L0,15 L0,0 z"/></clipPath></defs><g clip-path="url(#clip203)" fill="none" opacity="1" stroke="#000000" stroke-linecap="square" stroke-linejoin="bevel" stroke-opacity="1" stroke-width="1" transform="matrix(1,0,0,1,52,134)"><text fill="#000000" fill-opacity="1" font-family="Arial" font-size="10" font-style="normal" font-weight="400" stroke="none" textLength="42.7031" x="1" xml:space="preserve" y="11">face_tile8</text></g><defs><clipPath id="clip211"><path d="M-139.352,-117 L9.35156,-117 L9.35156,34 L-139.352,34 L-139.352,-117 z"/></clipPath></defs><g clip-path="url(#clip211)" fill="none" opacity="1" stroke="#000000" stroke-linecap="round" stroke-linejoin="miter" stroke-miterlimit="2" stroke-opacity="1" stroke-width="2" transform="matrix(1,0,0,1,139.352,117)"><path d="M0.148438,-4.5 L5.14844,0.5 L0.148438,5.5" fill-rule="evenodd" vector-effect="none"/></g><defs><clipPath id="clip214"><path d="M-109,-102 L39.7031,-102 L39.7031,49 L-109,49 L-109,-102 z"/></clipPath></defs><g clip-path="url(#clip214)" fill="#e8d152" fill-opacity="1" opacity="1" stroke="none" stroke-opacity="0" transform="matrix(1,0,0,1,109,102)"><path d="M0,0 L30,0 L30,30 L0,30 L0,0 z" fill-rule="evenodd" vector-effect="none"/></g><defs><clipPath id="clip218"><path d="M-15,-15 L15,-15 L15,15 L-15,15 L-15,-15 z"/></clipPath></defs><g clip-path="url(#clip218)" fill="none" opacity="1" stroke="#000000" stroke-linecap="butt" stroke-linejoin="miter" stroke-miterlimit="2" stroke-opacity="1" stroke-width="1" transform="matrix(1,0,0,1,124,117)"><text fill="#000000" fill-opacity="1" font-family="Arial" font-size="10" font-style="normal" font-weight="400" stroke="none" textLength="28.4844" x="-14.2344" xml:space="preserve" y="3.5">Yellow</text></g><defs><clipPath id="clip223"><path d="M-109.5,-102.5 L39.2031,-102.5 L39.2031,48.5 L-109.5,48.5 L-109.5,-102.5 z"/></clipPath></defs><g clip-path="url(#clip223)" fill="none" opacity="1" stroke="#000000" stroke-linecap="butt" stroke-linejoin="miter" stroke-miterlimit="2" stroke-opacity="1" stroke-width="1" transform="matrix(1,0,0,1,109.5,102.5)"><path d="M0,0 L30,0 L30,30 L0,30 L0,0 z" fill-rule="evenodd" vector-effect="none"/></g><defs><clipPath id="clip229"><path d="M0,0 L45,0 L45,15 L0,15 L0,0 z"/></clipPath></defs><g clip-path="url(#clip229)" fill="none" opacity="1" stroke="#000000" stroke-linecap="square" stroke-linejoin="bevel" stroke-opacity="1" stroke-width="1" transform="matrix(1,0,0,1,102,134)"><text fill="#000000" fill-opacity="1" font-family="Arial" font-size="10" font-style="normal" font-weight="400" stroke="none" textLength="42.7031" x="1" xml:space="preserve" y="11">face_tile9</text></g></g><!--generated on windows @ 2024-12-20 23:25:45 W. Europe Standard Time--></svg>
